<svg width="442" height="161" viewBox="0 0 442 161" fill="none" xmlns="http://www.w3.org/2000/svg">
    <path fill-rule="evenodd" clip-rule="evenodd" d="M27.8049 147.105L55.1465 133.198L62.6708 131.763C74.8579 129.439 82.4326 130.631 104.179 138.295C111.947 141.032 128.05 143.504 137.551 143.418C150.605 143.3 180.996 139.738 180.308 138.408C179.98 137.772 165.564 131.804 157.691 129.046C146.177 125.012 130.36 121.022 121.687 119.963C110.285 118.571 91.0861 121.09 77.5123 125.759C70.1469 128.292 63.0946 130.046 62.7737 129.425C62.3674 128.638 98.2305 111.731 117.491 103.628C136.8 95.5044 142.607 93.6078 150.015 93.006C156.118 92.5095 157.602 92.7069 161.021 94.4718C174.001 101.169 178.113 102.625 209.184 111.517C226.667 116.52 245.734 122.715 260.645 128.235C265.216 129.928 268.655 130.764 268.911 130.247C269.449 129.16 260.423 120.412 250.488 112.392C222.295 89.6349 196.369 82.1265 168.585 88.6728C162.292 90.1556 153.343 91.1831 153.742 90.3762C154.148 89.5575 173.285 84.5777 182.901 82.7893C211.73 77.4264 247.628 76.1424 257.017 80.1372C258.892 80.9343 260.434 82.9005 264.475 89.6407C270.298 99.3551 273.261 102.763 283.169 111.147C294.246 120.518 325.547 143.025 328.168 143.503C330.142 143.863 329.848 142.018 326.562 133.383C317.303 109.06 307.307 95.7738 292.077 87.5458C285.958 84.2401 274.705 80.8948 269.064 80.7036C266.95 80.6322 265.336 80.3404 265.476 80.0548C266.338 78.3136 299.461 84.2662 318.471 89.5785C332.608 93.5289 334.851 94.4836 339.641 98.5884C347.605 105.414 350.574 109.233 357.707 121.823C370.438 144.299 376.526 147.67 419.96 156.301C434.553 159.2 441.282 160.185 441.634 159.473C441.957 158.819 438.627 151.373 432.533 139.127C424.795 123.581 422.204 119.009 419.248 115.689C411.854 107.387 401.951 102.593 383.027 98.1566C366.281 94.2309 351.607 92.3804 344.74 93.3283C339.662 94.0288 337.893 93.8167 331.43 91.7335C321.054 88.388 306.795 84.6161 295.593 82.2532C290.378 81.153 286.205 80.0637 286.319 79.8329C286.434 79.6022 290.065 79.2834 294.39 79.1233C299.549 78.9335 306.999 79.6319 316.051 81.1534C330.327 83.5529 335.191 83.6377 343.786 81.6374C355.982 78.7988 389.688 65.4693 388.737 63.8617C388.598 63.6274 385.686 63.4784 382.265 63.5303C378.845 63.5828 369.464 63.1755 361.418 62.6253C339.031 61.0951 333.295 62.0919 308.233 71.8705C295.418 76.8704 295.095 76.9556 285.953 77.7158C277.473 78.4211 260.129 77.6923 260.645 76.6524C260.764 76.4122 264.087 75.5567 268.029 74.7514C288.812 70.5074 302.189 63.8239 319.897 48.8343C330.422 39.9261 340.572 30.7407 341.224 29.536C341.487 29.0515 335.325 31.9621 327.449 36.0432C319.612 40.1038 307.491 45.9861 300.513 49.1147C284.877 56.1262 279.776 59.2211 271.022 67.0085C267.252 70.3625 263.422 73.4877 262.513 73.9531C259.898 75.2923 251.495 76.2845 244.921 76.0308C214.062 74.8386 176.473 80.2983 147.49 90.1824C138.592 93.2167 138.006 93.3304 140.617 91.5122C142.187 90.4186 147.422 87.4643 152.251 84.9475L161.03 80.3708L167.555 80.4254C177.437 80.5081 193.439 78.0618 204.406 74.7912C213.874 71.9686 214.341 71.757 236.273 60.3751C252.245 52.0854 263.948 45.564 277.716 37.2809C288.268 30.9323 296.99 25.5574 297.099 25.3361C297.643 24.2384 295.409 24.4731 291.818 25.8919C287.868 27.4519 284.199 28.3534 261.999 33.2164C248.154 36.2489 225.968 42.1763 215.008 45.7711C210.362 47.295 202.255 50.6514 195.967 53.6541C183.16 59.7703 175.944 64.6291 168.187 72.3611C163.535 76.9973 162.681 77.5667 148.862 85.2567C140.91 89.6826 133.216 94.1078 131.765 95.0903C130.313 96.0737 123.907 99.07 117.528 101.748C111.15 104.426 98.2666 110.221 88.8986 114.625C79.5307 119.029 69.1152 123.868 65.7539 125.378L59.6417 128.123L66.1694 123.003C73.3836 117.344 79.3607 111.945 86.955 104.226C91.8029 99.2983 92.5108 98.8147 107.147 90.4308C141.506 70.7488 147.471 65.7502 183.986 26.0401C205.329 2.82865 209.517 -2.52272 202.828 1.95702C198.773 4.6722 182.981 13.9739 165.922 23.6948C157.784 28.3326 148.396 33.8704 145.061 36.0008C125.371 48.5801 113.151 61.5159 102.804 80.7303C98.757 88.2468 97.141 90.3798 88.119 100.115C77.2128 111.883 69.9462 118.433 58.6353 126.691C52.5076 131.164 47.6989 133.923 25.5523 145.671C4.40978 156.887 -0.284714 159.564 0.0513452 160.215C0.388917 160.869 5.38382 158.509 27.8049 147.105ZM89.5246 124.402C100.207 122.009 112.518 120.981 119.998 121.857C131.063 123.154 147.904 127.585 163.861 133.397C171.822 136.297 173.916 137.521 172.323 138.344C170.97 139.043 145.166 141.182 138.026 141.188C125.11 141.198 112.393 138.934 100.677 134.539C97.7022 133.423 92.9147 131.806 90.0386 130.944C87.1617 130.083 85.0391 129.26 85.3216 129.114C87.5624 127.957 118.329 129.987 121.515 131.502C122.158 131.808 123.527 131.973 124.558 131.868C128.51 131.465 125.441 129.886 117.979 128.482C110.015 126.983 97.797 126.213 88.1702 126.602C84.9878 126.731 82.4888 126.625 82.6165 126.367C82.7451 126.108 85.8529 125.225 89.5246 124.402ZM102.103 87.982C108.857 78.8125 124.683 65.1362 151.761 45.0692C159.732 39.1615 160.31 38.6411 159.348 38.2396C157.72 37.5592 125.619 62.3349 113.102 73.9327C109.09 77.6503 105.623 80.6622 105.397 80.6268C104.676 80.5116 109.903 71.8513 114.419 65.6781C119.279 59.0354 124.856 53.0929 130.756 48.272C139.385 41.2222 146.775 36.654 191.486 10.7362C196.168 8.02192 198.306 7.01811 197.976 7.68922C197.706 8.23974 192.823 14.0111 187.126 20.5139C155.12 57.0457 140.701 69.4283 108.975 87.6262C99.1136 93.2821 98.1625 93.3318 102.103 87.982ZM165.593 93.3882C167.644 93.2113 176.524 95.4199 186.225 98.5198C190.862 100.002 194.84 101.258 195.065 101.312C195.289 101.366 195.603 101.147 195.763 100.826C196.188 99.9659 183.554 95.1273 175.876 93.2095C166.785 90.9382 167.359 89.9577 178.515 88.7003C199.728 86.3101 220.243 92.5554 241.463 107.864C247.567 112.268 261.535 123.93 262.164 125.148C263.007 126.779 260.821 126.293 249.638 122.364C234.754 117.134 215.885 111.183 202.117 107.377C185.77 102.858 178.548 100.445 171.14 97.0269C167.424 95.3126 164.338 93.82 164.281 93.7099C164.224 93.5998 164.814 93.4551 165.593 93.3882ZM174.711 74.3819C178.002 72.9708 184.311 70.5911 188.731 69.0931C204.665 63.6911 226.522 54.181 225.876 52.9299C225.735 52.657 221.393 54.3964 216.227 56.7951C207.833 60.6923 175.347 73.581 171.259 74.6357C168.39 75.3753 169.435 73.4682 174.179 69.3074C183.788 60.8787 199.223 52.8191 216.463 47.2283C225.242 44.381 252.571 36.7511 259.998 35.0735C272.499 32.2508 284.609 30.0728 284.473 30.6726C284.171 32.0168 256.157 47.9358 234.181 59.2514C211.91 70.7186 211.324 70.9828 202.694 73.4287C189.355 77.2092 170.09 79.5853 169.053 77.5775C168.83 77.1458 170.62 76.1345 174.711 74.3819ZM265.436 83.5797C265.674 83.4569 268.849 85.0356 272.493 87.0874C279.754 91.1768 281.37 90.8561 275.065 86.5768C272.88 85.0943 270.977 83.6577 270.836 83.3854C270.341 82.426 276.287 83.599 282.275 85.6414C292.695 89.196 301.428 95.3405 309.033 104.467C315.09 111.736 326.544 136.23 324.402 137.336C323.361 137.873 305.035 125.413 293.085 116.042C277.517 103.834 273.093 99.2752 268.745 90.9593C266.687 87.0231 265.198 83.7026 265.436 83.5797ZM275.351 65.777C279.017 62.2662 280.557 61.3028 291.732 55.5321C298.515 52.0287 310.253 46.2681 317.815 42.7299L331.565 36.2982L324.021 43.0352C307.081 58.1627 297.282 64.5898 284.531 68.9387C280.58 70.2862 276.453 71.4593 275.359 71.5455C273.456 71.6953 273.459 71.6459 275.461 70.3829C278.748 68.3077 277.354 67.78 273.645 69.6955C269.607 71.7807 269.984 70.916 275.351 65.777ZM315.506 70.6925C333.57 63.6736 343.733 62.1707 362.031 63.8104C366.682 64.2273 372.998 64.7453 376.067 64.9615C380.058 65.2433 381.407 65.6355 380.808 66.3417C379.642 67.7162 360.237 75.1403 350.088 78.0949C338.148 81.5703 333.48 81.8361 321.128 79.7438C315.21 78.7413 310.455 77.7454 310.561 77.5306C310.667 77.3159 312.965 76.8741 315.669 76.549C324.639 75.4696 322.342 74.5488 312.785 75.3928C307.344 75.8726 303.892 75.8529 304.587 75.3452C305.246 74.8636 310.16 72.7695 315.506 70.6925ZM345.914 98.4318C352.044 100.487 373.569 109.437 388.224 116.024C397.392 120.145 404.97 123.361 405.063 123.171C405.635 122.016 380.402 110.23 358.856 101.586C351.838 98.7696 346.403 96.1975 346.779 95.8687C348.059 94.7525 357.024 95.1581 366.274 96.751C392.92 101.339 407.79 107.086 416.291 116.083C419.909 119.912 439.21 156.318 437.963 156.962C437.572 157.164 431 156.133 423.36 154.673C396.792 149.591 386.693 146.71 378.164 141.779C369.849 136.972 367.746 134.519 359.026 119.455C353.054 109.139 350.153 104.854 347.307 102.136C345.226 100.151 343.587 98.346 343.666 98.1257C343.744 97.9065 344.756 98.0438 345.914 98.4318Z" fill="black"/>
</svg>
