<svg width="251" height="100" viewBox="0 0 251 100" fill="none" xmlns="http://www.w3.org/2000/svg">
<circle cx="127" cy="50" r="49" stroke="black" stroke-width="2"/>
<rect y="28" width="250" height="40" fill="white"/>
<path d="M169.792 56.024C169.76 55.784 169.76 55.528 169.792 55.256C170.544 55.176 171.08 55.104 171.4 55.04C171.72 54.96 171.92 54.8 172 54.56C172.08 54.304 172.12 53.896 172.12 53.336V42.176C172.12 41.504 172.08 41.024 172 40.736C171.92 40.448 171.712 40.264 171.376 40.184C171.056 40.088 170.528 40.008 169.792 39.944C169.76 39.704 169.76 39.448 169.792 39.176C170.128 39.176 170.52 39.184 170.968 39.2C171.432 39.2 171.888 39.208 172.336 39.224C172.784 39.224 173.152 39.224 173.44 39.224C173.744 39.224 174.12 39.224 174.568 39.224C175.032 39.208 175.496 39.2 175.96 39.2C176.44 39.184 176.832 39.176 177.136 39.176C177.184 39.416 177.184 39.672 177.136 39.944C176.384 40.008 175.84 40.08 175.504 40.16C175.168 40.24 174.96 40.4 174.88 40.64C174.8 40.88 174.76 41.288 174.76 41.864V53.024C174.76 53.568 174.76 54.008 174.76 54.344C174.776 54.664 174.792 54.88 174.808 54.992H178.216C179.544 54.992 180.528 54.696 181.168 54.104C181.696 53.592 182.248 52.696 182.824 51.416C183.08 51.368 183.328 51.368 183.568 51.416C183.376 52.392 183.216 53.272 183.088 54.056C182.976 54.824 182.88 55.472 182.8 56C181.248 56 179.696 56 178.144 56C176.608 55.984 175.064 55.976 173.512 55.976C173.208 55.976 172.824 55.984 172.36 56C171.896 56 171.432 56 170.968 56C170.504 56.016 170.112 56.024 169.792 56.024ZM184.534 56.024C184.502 55.784 184.502 55.528 184.534 55.256C185.286 55.176 185.822 55.104 186.142 55.04C186.462 54.96 186.662 54.8 186.742 54.56C186.822 54.304 186.862 53.896 186.862 53.336V42.176C186.862 41.504 186.822 41.024 186.742 40.736C186.662 40.448 186.454 40.264 186.118 40.184C185.798 40.088 185.27 40.008 184.534 39.944C184.502 39.704 184.502 39.448 184.534 39.176C184.95 39.176 185.31 39.184 185.614 39.2C185.934 39.2 186.254 39.2 186.574 39.2C186.894 39.2 187.278 39.208 187.726 39.224C188.174 39.224 188.742 39.224 189.43 39.224C190.694 39.224 191.878 39.224 192.982 39.224C194.086 39.208 195.006 39.2 195.742 39.2C196.478 39.184 196.91 39.176 197.038 39.176C197.102 39.768 197.174 40.376 197.254 41C197.35 41.624 197.454 42.288 197.566 42.992C197.294 43.024 197.03 43.024 196.774 42.992C196.582 42.512 196.358 42.088 196.102 41.72C195.846 41.352 195.582 41.072 195.31 40.88C195.006 40.656 194.638 40.488 194.206 40.376C193.79 40.264 193.27 40.208 192.646 40.208H189.502V46.76H190.822C191.59 46.76 192.174 46.712 192.574 46.616C192.974 46.504 193.27 46.272 193.462 45.92C193.654 45.552 193.806 44.976 193.918 44.192C194.206 44.144 194.478 44.144 194.734 44.192C194.718 44.896 194.702 45.44 194.686 45.824C194.686 46.192 194.686 46.464 194.686 46.64C194.686 46.816 194.686 46.96 194.686 47.072C194.686 47.168 194.686 47.248 194.686 47.312L194.734 50.48C194.494 50.528 194.222 50.528 193.918 50.48C193.822 49.632 193.678 49.024 193.486 48.656C193.294 48.288 193.006 48.056 192.622 47.96C192.254 47.864 191.726 47.816 191.038 47.816H189.502V53.024C189.502 53.568 189.502 54.008 189.502 54.344C189.518 54.664 189.534 54.872 189.55 54.968H192.838C193.638 54.968 194.278 54.904 194.758 54.776C195.254 54.632 195.662 54.424 195.982 54.152C196.206 53.976 196.47 53.672 196.774 53.24C197.078 52.792 197.366 52.28 197.638 51.704C197.894 51.672 198.142 51.672 198.382 51.704C198.222 52.6 198.086 53.408 197.974 54.128C197.862 54.848 197.766 55.472 197.686 56C196.966 56 196.182 56 195.334 56C194.486 56 193.638 56 192.79 56C191.942 55.984 191.166 55.976 190.462 55.976C189.774 55.976 189.222 55.976 188.806 55.976C188.054 55.976 187.438 55.984 186.958 56C186.494 56 186.078 56 185.71 56C185.358 56.016 184.966 56.024 184.534 56.024ZM199.814 56.024C199.782 55.784 199.782 55.528 199.814 55.256C200.582 55.176 201.134 55.104 201.47 55.04C201.806 54.96 202.014 54.8 202.094 54.56C202.174 54.32 202.214 53.912 202.214 53.336V42.176C202.214 41.504 202.174 41.024 202.094 40.736C202.014 40.448 201.806 40.264 201.47 40.184C201.134 40.088 200.582 40.008 199.814 39.944C199.782 39.704 199.782 39.448 199.814 39.176C200.134 39.176 200.526 39.184 200.99 39.2C201.47 39.2 201.942 39.208 202.406 39.224C202.87 39.224 203.246 39.224 203.534 39.224C203.838 39.224 204.206 39.224 204.638 39.224C205.086 39.208 205.534 39.2 205.982 39.2C206.446 39.184 206.838 39.176 207.158 39.176C207.206 39.416 207.206 39.672 207.158 39.944C206.422 40.008 205.894 40.08 205.574 40.16C205.254 40.24 205.054 40.4 204.974 40.64C204.894 40.88 204.854 41.288 204.854 41.864V47.792L210.374 41.936C210.982 41.28 211.286 40.832 211.286 40.592C211.286 40.384 211.142 40.24 210.854 40.16C210.566 40.064 210.094 39.992 209.438 39.944C209.406 39.672 209.406 39.416 209.438 39.176C209.71 39.176 210.054 39.184 210.47 39.2C210.886 39.2 211.302 39.208 211.718 39.224C212.134 39.224 212.47 39.224 212.726 39.224C213.238 39.224 213.718 39.216 214.166 39.2C214.63 39.184 215.134 39.176 215.678 39.176C215.71 39.432 215.71 39.688 215.678 39.944C215.182 39.992 214.766 40.056 214.43 40.136C214.11 40.216 213.798 40.352 213.494 40.544C213.206 40.736 212.878 41.008 212.51 41.36C212.142 41.712 211.678 42.176 211.118 42.752L207.59 46.4L212.534 52.904C212.918 53.4 213.238 53.8 213.494 54.104C213.75 54.392 213.998 54.616 214.238 54.776C214.494 54.92 214.782 55.024 215.102 55.088C215.438 55.152 215.862 55.208 216.374 55.256C216.422 55.512 216.422 55.768 216.374 56.024C216.07 56.024 215.71 56.016 215.294 56C214.878 56 214.47 56 214.07 56C213.67 55.984 213.326 55.976 213.038 55.976C212.862 55.976 212.63 55.984 212.342 56C212.07 56 211.822 56 211.598 56L205.838 48.248L204.854 49.328V53.024C204.854 53.696 204.894 54.184 204.974 54.488C205.054 54.776 205.254 54.96 205.574 55.04C205.91 55.12 206.438 55.192 207.158 55.256C207.206 55.512 207.206 55.768 207.158 56.024C206.838 56.024 206.446 56.016 205.982 56C205.534 56 205.078 56 204.614 56C204.166 55.984 203.79 55.976 203.486 55.976C203.182 55.976 202.806 55.984 202.358 56C201.91 56 201.454 56 200.99 56C200.542 56.016 200.15 56.024 199.814 56.024ZM216.97 56.024C216.938 55.784 216.938 55.528 216.97 55.256C217.738 55.176 218.29 55.104 218.626 55.04C218.962 54.96 219.17 54.8 219.25 54.56C219.33 54.32 219.37 53.912 219.37 53.336V42.176C219.37 41.504 219.33 41.024 219.25 40.736C219.17 40.448 218.962 40.264 218.626 40.184C218.29 40.088 217.738 40.008 216.97 39.944C216.938 39.704 216.938 39.448 216.97 39.176C217.29 39.176 217.682 39.184 218.146 39.2C218.626 39.2 219.098 39.208 219.562 39.224C220.026 39.224 220.402 39.224 220.69 39.224C220.994 39.224 221.362 39.224 221.794 39.224C222.242 39.208 222.69 39.2 223.138 39.2C223.602 39.184 223.994 39.176 224.314 39.176C224.362 39.416 224.362 39.672 224.314 39.944C223.578 40.008 223.05 40.08 222.73 40.16C222.41 40.24 222.21 40.4 222.13 40.64C222.05 40.88 222.01 41.288 222.01 41.864V47.792L227.53 41.936C228.138 41.28 228.442 40.832 228.442 40.592C228.442 40.384 228.298 40.24 228.01 40.16C227.722 40.064 227.25 39.992 226.594 39.944C226.562 39.672 226.562 39.416 226.594 39.176C226.866 39.176 227.21 39.184 227.626 39.2C228.042 39.2 228.458 39.208 228.874 39.224C229.29 39.224 229.626 39.224 229.882 39.224C230.394 39.224 230.874 39.216 231.322 39.2C231.786 39.184 232.29 39.176 232.834 39.176C232.866 39.432 232.866 39.688 232.834 39.944C232.338 39.992 231.922 40.056 231.586 40.136C231.266 40.216 230.954 40.352 230.65 40.544C230.362 40.736 230.034 41.008 229.666 41.36C229.298 41.712 228.834 42.176 228.274 42.752L224.746 46.4L229.69 52.904C230.074 53.4 230.394 53.8 230.65 54.104C230.906 54.392 231.154 54.616 231.394 54.776C231.65 54.92 231.938 55.024 232.258 55.088C232.594 55.152 233.018 55.208 233.53 55.256C233.578 55.512 233.578 55.768 233.53 56.024C233.226 56.024 232.866 56.016 232.45 56C232.034 56 231.626 56 231.226 56C230.826 55.984 230.482 55.976 230.194 55.976C230.018 55.976 229.786 55.984 229.498 56C229.226 56 228.978 56 228.754 56L222.994 48.248L222.01 49.328V53.024C222.01 53.696 222.05 54.184 222.13 54.488C222.21 54.776 222.41 54.96 222.73 55.04C223.066 55.12 223.594 55.192 224.314 55.256C224.362 55.512 224.362 55.768 224.314 56.024C223.994 56.024 223.602 56.016 223.138 56C222.69 56 222.234 56 221.77 56C221.322 55.984 220.946 55.976 220.642 55.976C220.338 55.976 219.962 55.984 219.514 56C219.066 56 218.61 56 218.146 56C217.698 56.016 217.306 56.024 216.97 56.024ZM232.758 56.024C232.726 55.768 232.726 55.512 232.758 55.256C233.206 55.208 233.566 55.152 233.838 55.088C234.11 55.024 234.342 54.912 234.534 54.752C234.726 54.576 234.91 54.32 235.086 53.984C235.262 53.632 235.47 53.144 235.71 52.52L240.894 39.224C241.07 39.16 241.278 39.112 241.518 39.08C241.774 39.048 241.99 39.032 242.166 39.032L247.326 52.736C247.55 53.312 247.734 53.768 247.878 54.104C248.022 54.424 248.182 54.656 248.358 54.8C248.534 54.944 248.758 55.048 249.03 55.112C249.302 55.16 249.678 55.208 250.158 55.256C250.19 55.512 250.19 55.768 250.158 56.024C249.598 56.024 249.022 56.016 248.43 56C247.838 55.984 247.246 55.976 246.654 55.976C246.046 55.976 245.43 55.984 244.806 56C244.198 56.016 243.59 56.024 242.982 56.024C242.934 55.784 242.934 55.528 242.982 55.256C243.766 55.176 244.31 55.104 244.614 55.04C244.918 54.96 245.07 54.768 245.07 54.464C245.07 54.336 245.046 54.192 244.998 54.032C244.95 53.872 244.886 53.672 244.806 53.432L243.438 49.736H238.038L236.838 53.048C236.726 53.352 236.638 53.608 236.574 53.816C236.526 54.008 236.502 54.184 236.502 54.344C236.502 54.696 236.662 54.92 236.982 55.016C237.318 55.096 237.862 55.176 238.614 55.256C238.646 55.528 238.646 55.784 238.614 56.024C238.07 56.024 237.534 56.016 237.006 56C236.478 55.984 235.942 55.976 235.398 55.976C234.95 55.976 234.518 55.984 234.102 56C233.686 56.016 233.238 56.024 232.758 56.024ZM238.398 48.728H243.078L240.726 42.344L238.398 48.728Z" fill="black"/>
<path d="M0.768 56.024C0.72 55.784 0.72 55.528 0.768 55.256C1.504 55.192 2.032 55.12 2.352 55.04C2.688 54.96 2.896 54.8 2.976 54.56C3.072 54.304 3.12 53.896 3.12 53.336V42.176C3.12 41.504 3.08 41.024 3 40.736C2.92 40.448 2.712 40.264 2.376 40.184C2.04 40.088 1.496 40.008 0.744 39.944C0.696 39.704 0.696 39.448 0.744 39.176C1.064 39.176 1.456 39.184 1.92 39.2C2.4 39.2 2.872 39.208 3.336 39.224C3.8 39.224 4.176 39.224 4.464 39.224C4.752 39.224 5.12 39.224 5.568 39.224C6.032 39.208 6.496 39.2 6.96 39.2C7.44 39.184 7.824 39.176 8.112 39.176C8.16 39.416 8.16 39.672 8.112 39.944C7.376 40.008 6.84 40.08 6.504 40.16C6.168 40.24 5.96 40.408 5.88 40.664C5.8 40.904 5.76 41.304 5.76 41.864V46.592H14.4V42.176C14.4 41.504 14.36 41.024 14.28 40.736C14.2 40.448 14 40.264 13.68 40.184C13.36 40.088 12.824 40.008 12.072 39.944C12.04 39.704 12.04 39.448 12.072 39.176C12.376 39.176 12.76 39.184 13.224 39.2C13.688 39.2 14.152 39.208 14.616 39.224C15.08 39.224 15.456 39.224 15.744 39.224C16.064 39.224 16.448 39.224 16.896 39.224C17.344 39.208 17.792 39.2 18.24 39.2C18.704 39.184 19.096 39.176 19.416 39.176C19.448 39.416 19.448 39.672 19.416 39.944C18.664 40.008 18.12 40.08 17.784 40.16C17.448 40.24 17.24 40.408 17.16 40.664C17.08 40.904 17.04 41.304 17.04 41.864V53.024C17.04 53.68 17.08 54.16 17.16 54.464C17.24 54.752 17.44 54.944 17.76 55.04C18.096 55.12 18.648 55.192 19.416 55.256C19.448 55.528 19.448 55.784 19.416 56.024C19.08 56.024 18.68 56.016 18.216 56C17.752 56 17.288 56 16.824 56C16.376 55.984 16 55.976 15.696 55.976C15.408 55.976 15.04 55.984 14.592 56C14.144 56 13.696 56 13.248 56C12.8 56.016 12.416 56.024 12.096 56.024C12.048 55.784 12.048 55.528 12.096 55.256C12.832 55.192 13.36 55.12 13.68 55.04C14 54.96 14.2 54.8 14.28 54.56C14.36 54.304 14.4 53.896 14.4 53.336V47.648H5.76V53.024C5.76 53.696 5.8 54.176 5.88 54.464C5.96 54.752 6.16 54.944 6.48 55.04C6.816 55.12 7.36 55.192 8.112 55.256C8.144 55.528 8.144 55.784 8.112 56.024C7.792 56.024 7.4 56.016 6.936 56C6.472 56 6.008 56 5.544 56C5.096 55.984 4.72 55.976 4.416 55.976C4.128 55.976 3.752 55.984 3.288 56C2.84 56 2.384 56 1.92 56C1.472 56.016 1.088 56.024 0.768 56.024ZM20.9482 56.024C20.9163 55.784 20.9163 55.528 20.9482 55.256C21.7003 55.176 22.2363 55.104 22.5563 55.04C22.8763 54.96 23.0763 54.8 23.1562 54.56C23.2363 54.304 23.2763 53.896 23.2763 53.336V42.176C23.2763 41.504 23.2363 41.024 23.1562 40.736C23.0763 40.448 22.8683 40.264 22.5323 40.184C22.2123 40.088 21.6843 40.008 20.9482 39.944C20.9163 39.704 20.9163 39.448 20.9482 39.176C21.3643 39.176 21.7243 39.184 22.0283 39.2C22.3483 39.2 22.6683 39.2 22.9883 39.2C23.3083 39.2 23.6923 39.208 24.1403 39.224C24.5883 39.224 25.1563 39.224 25.8443 39.224C27.1083 39.224 28.2923 39.224 29.3963 39.224C30.5003 39.208 31.4203 39.2 32.1562 39.2C32.8923 39.184 33.3243 39.176 33.4523 39.176C33.5163 39.768 33.5883 40.376 33.6683 41C33.7643 41.624 33.8683 42.288 33.9803 42.992C33.7083 43.024 33.4443 43.024 33.1883 42.992C32.9963 42.512 32.7723 42.088 32.5163 41.72C32.2603 41.352 31.9963 41.072 31.7243 40.88C31.4203 40.656 31.0523 40.488 30.6203 40.376C30.2043 40.264 29.6843 40.208 29.0603 40.208H25.9163V46.76H27.2363C28.0043 46.76 28.5883 46.712 28.9883 46.616C29.3883 46.504 29.6843 46.272 29.8763 45.92C30.0683 45.552 30.2203 44.976 30.3323 44.192C30.6203 44.144 30.8923 44.144 31.1483 44.192C31.1323 44.896 31.1163 45.44 31.1003 45.824C31.1003 46.192 31.1003 46.464 31.1003 46.64C31.1003 46.816 31.1003 46.96 31.1003 47.072C31.1003 47.168 31.1003 47.248 31.1003 47.312L31.1483 50.48C30.9083 50.528 30.6363 50.528 30.3323 50.48C30.2363 49.632 30.0923 49.024 29.9003 48.656C29.7083 48.288 29.4203 48.056 29.0363 47.96C28.6683 47.864 28.1403 47.816 27.4523 47.816H25.9163V53.024C25.9163 53.568 25.9163 54.008 25.9163 54.344C25.9323 54.664 25.9483 54.872 25.9643 54.968H29.2523C30.0523 54.968 30.6923 54.904 31.1723 54.776C31.6683 54.632 32.0763 54.424 32.3963 54.152C32.6203 53.976 32.8843 53.672 33.1883 53.24C33.4923 52.792 33.7803 52.28 34.0523 51.704C34.3083 51.672 34.5563 51.672 34.7963 51.704C34.6363 52.6 34.5003 53.408 34.3883 54.128C34.2763 54.848 34.1803 55.472 34.1003 56C33.3803 56 32.5963 56 31.7483 56C30.9003 56 30.0523 56 29.2043 56C28.3563 55.984 27.5803 55.976 26.8763 55.976C26.1883 55.976 25.6363 55.976 25.2203 55.976C24.4683 55.976 23.8523 55.984 23.3723 56C22.9083 56 22.4923 56 22.1243 56C21.7723 56.016 21.3803 56.024 20.9482 56.024ZM36.2998 56.024C36.2678 55.784 36.2678 55.528 36.2998 55.256C37.0518 55.176 37.5878 55.104 37.9078 55.04C38.2278 54.96 38.4278 54.8 38.5078 54.56C38.5878 54.304 38.6278 53.896 38.6278 53.336V42.176C38.6278 41.504 38.5878 41.024 38.5078 40.736C38.4278 40.448 38.2198 40.264 37.8838 40.184C37.5638 40.088 37.0358 40.008 36.2998 39.944C36.2678 39.704 36.2678 39.448 36.2998 39.176C36.6358 39.176 37.0278 39.184 37.4758 39.2C37.9398 39.2 38.3958 39.208 38.8438 39.224C39.2918 39.224 39.6598 39.224 39.9478 39.224C40.2518 39.224 40.6278 39.224 41.0758 39.224C41.5398 39.208 42.0038 39.2 42.4678 39.2C42.9478 39.184 43.3398 39.176 43.6438 39.176C43.6918 39.416 43.6918 39.672 43.6438 39.944C42.8918 40.008 42.3478 40.08 42.0118 40.16C41.6758 40.24 41.4678 40.4 41.3878 40.64C41.3078 40.88 41.2678 41.288 41.2678 41.864V53.024C41.2678 53.568 41.2678 54.008 41.2678 54.344C41.2838 54.664 41.2998 54.88 41.3158 54.992H44.7238C46.0518 54.992 47.0358 54.696 47.6758 54.104C48.2038 53.592 48.7558 52.696 49.3318 51.416C49.5878 51.368 49.8358 51.368 50.0758 51.416C49.8838 52.392 49.7238 53.272 49.5958 54.056C49.4838 54.824 49.3878 55.472 49.3078 56C47.7558 56 46.2038 56 44.6518 56C43.1158 55.984 41.5718 55.976 40.0198 55.976C39.7158 55.976 39.3318 55.984 38.8678 56C38.4038 56 37.9398 56 37.4758 56C37.0118 56.016 36.6198 56.024 36.2998 56.024ZM51.042 56.024C51.01 55.784 51.01 55.528 51.042 55.256C51.794 55.176 52.33 55.104 52.65 55.04C52.97 54.96 53.17 54.8 53.25 54.56C53.33 54.304 53.37 53.896 53.37 53.336V42.176C53.37 41.504 53.33 41.024 53.25 40.736C53.17 40.448 52.962 40.264 52.626 40.184C52.306 40.088 51.778 40.008 51.042 39.944C51.01 39.704 51.01 39.448 51.042 39.176C51.458 39.176 51.818 39.184 52.122 39.2C52.442 39.2 52.762 39.2 53.082 39.2C53.402 39.2 53.786 39.208 54.234 39.224C54.682 39.224 55.25 39.224 55.938 39.224C57.202 39.224 58.386 39.224 59.49 39.224C60.594 39.208 61.514 39.2 62.25 39.2C62.986 39.184 63.418 39.176 63.546 39.176C63.61 39.768 63.682 40.376 63.762 41C63.858 41.624 63.962 42.288 64.074 42.992C63.802 43.024 63.538 43.024 63.282 42.992C63.09 42.512 62.866 42.088 62.61 41.72C62.354 41.352 62.09 41.072 61.818 40.88C61.514 40.656 61.146 40.488 60.714 40.376C60.298 40.264 59.778 40.208 59.154 40.208H56.01V46.76H57.33C58.098 46.76 58.682 46.712 59.082 46.616C59.482 46.504 59.778 46.272 59.97 45.92C60.162 45.552 60.314 44.976 60.426 44.192C60.714 44.144 60.986 44.144 61.242 44.192C61.226 44.896 61.21 45.44 61.194 45.824C61.194 46.192 61.194 46.464 61.194 46.64C61.194 46.816 61.194 46.96 61.194 47.072C61.194 47.168 61.194 47.248 61.194 47.312L61.242 50.48C61.002 50.528 60.73 50.528 60.426 50.48C60.33 49.632 60.186 49.024 59.994 48.656C59.802 48.288 59.514 48.056 59.13 47.96C58.762 47.864 58.234 47.816 57.546 47.816H56.01V53.024C56.01 53.568 56.01 54.008 56.01 54.344C56.026 54.664 56.042 54.872 56.058 54.968H59.346C60.146 54.968 60.786 54.904 61.266 54.776C61.762 54.632 62.17 54.424 62.49 54.152C62.714 53.976 62.978 53.672 63.282 53.24C63.586 52.792 63.874 52.28 64.146 51.704C64.402 51.672 64.65 51.672 64.89 51.704C64.73 52.6 64.594 53.408 64.482 54.128C64.37 54.848 64.274 55.472 64.194 56C63.474 56 62.69 56 61.842 56C60.994 56 60.146 56 59.298 56C58.45 55.984 57.674 55.976 56.97 55.976C56.282 55.976 55.73 55.976 55.314 55.976C54.562 55.976 53.946 55.984 53.466 56C53.002 56 52.586 56 52.218 56C51.866 56.016 51.474 56.024 51.042 56.024ZM80.5056 56.168L69.8256 42.152V52.424C69.8256 53.032 69.8416 53.504 69.8736 53.84C69.9056 54.16 70.0016 54.408 70.1616 54.584C70.3216 54.744 70.5696 54.88 70.9056 54.992C71.2416 55.104 71.7216 55.192 72.3456 55.256C72.3776 55.512 72.3776 55.768 72.3456 56.024C71.8656 56.024 71.3296 56.016 70.7376 56C70.1616 55.984 69.6736 55.976 69.2736 55.976C68.8736 55.976 68.3776 55.984 67.7856 56C67.2096 56.016 66.6896 56.024 66.2256 56.024C66.1776 55.784 66.1776 55.528 66.2256 55.256C66.8016 55.176 67.2496 55.104 67.5696 55.04C67.8896 54.96 68.1216 54.848 68.2656 54.704C68.4096 54.544 68.4976 54.312 68.5296 54.008C68.5776 53.704 68.6016 53.28 68.6016 52.736V42.896C68.6016 42.256 68.5776 41.752 68.5296 41.384C68.4976 41.016 68.3936 40.744 68.2176 40.568C68.0576 40.376 67.8016 40.24 67.4496 40.16C67.1136 40.064 66.6416 39.984 66.0336 39.92C66.0176 39.68 66.0176 39.432 66.0336 39.176C66.5296 39.176 67.0576 39.184 67.6176 39.2C68.1776 39.216 68.7376 39.224 69.2976 39.224C69.3776 39.224 69.5936 39.224 69.9456 39.224C70.3136 39.224 70.6336 39.216 70.9056 39.2L80.6496 52.016V42.8C80.6496 42.192 80.6336 41.72 80.6016 41.384C80.5856 41.048 80.4896 40.8 80.3136 40.64C79.9776 40.288 79.1696 40.064 77.8896 39.968C77.8416 39.696 77.8416 39.44 77.8896 39.2C78.1936 39.2 78.5536 39.208 78.9696 39.224C79.4016 39.224 79.8176 39.232 80.2176 39.248C80.6176 39.248 80.9456 39.248 81.2016 39.248C81.6016 39.248 82.0976 39.24 82.6896 39.224C83.2816 39.208 83.8096 39.2 84.2736 39.2C84.3056 39.44 84.3056 39.688 84.2736 39.944C83.5056 40.04 82.9536 40.152 82.6176 40.28C82.2816 40.392 82.0736 40.608 81.9936 40.928C81.9136 41.248 81.8736 41.768 81.8736 42.488V56.048C81.7136 56.08 81.4976 56.104 81.2256 56.12C80.9536 56.152 80.7136 56.168 80.5056 56.168Z" fill="black"/>
<path fill-rule="evenodd" clip-rule="evenodd" d="M126.185 86.404L124.992 80.7711L125.083 79.3401C125.232 77.0223 125.788 75.7131 128.129 72.1658C128.966 70.8986 130.136 68.1122 130.556 66.3912C131.132 64.0267 131.895 58.3583 131.63 58.4162C131.503 58.4439 129.796 60.7512 128.951 62.0364C127.715 63.9157 126.291 66.5749 125.708 68.0891C124.942 70.0799 124.507 73.6743 124.707 76.3594C124.815 77.8164 124.801 79.178 124.677 79.205C124.52 79.2392 123.189 71.9171 122.646 68.0335C122.101 64.14 122.033 62.9962 122.266 61.6278C122.458 60.5004 122.561 60.2421 123.027 59.7122C124.798 57.7007 125.241 57.0302 128.225 51.8592C129.903 48.9496 131.864 45.8132 133.516 43.3941C134.022 42.6525 134.327 42.0728 134.247 42.0008C134.081 41.8494 132.131 43.0445 130.267 44.44C124.979 48.4002 122.474 52.7106 122.354 58.0566C122.327 59.2676 122.098 60.9356 121.974 60.8234C121.849 60.7093 121.849 57.0034 121.974 55.1769C122.35 49.7008 123.766 43.1508 124.897 41.6534C125.123 41.3544 125.539 41.1737 126.908 40.7794C128.882 40.2112 129.616 39.8457 131.543 38.473C133.696 36.9385 139.083 32.4043 139.286 31.9546C139.44 31.6159 139.102 31.577 137.435 31.7406C132.737 32.2018 129.945 33.346 127.802 35.6878C126.942 36.6287 125.839 38.4953 125.548 39.505C125.439 39.8834 125.313 40.1606 125.27 40.1209C125.003 39.8784 127.564 34.1904 129.367 31.0202C130.707 28.6627 130.978 28.305 131.918 27.644C133.482 26.5451 134.288 26.1989 136.827 25.5374C141.359 24.3569 142.23 23.4247 145.733 16.0071C146.91 13.5148 147.39 12.3481 147.281 12.249C147.181 12.158 145.72 12.3887 143.29 12.8798C140.204 13.5033 139.282 13.7437 138.563 14.1125C136.766 15.0349 135.471 16.5853 133.826 19.7835C132.37 22.6136 131.374 25.1727 131.227 26.4608C131.118 27.413 131 27.7221 130.338 28.7861C129.275 30.4943 127.961 32.8826 127.033 34.7888C126.601 35.6762 126.219 36.376 126.184 36.344C126.148 36.3117 126.258 35.6397 126.428 34.8502C126.631 33.9087 127.094 32.5974 127.775 31.0377C128.85 28.5779 129.087 27.7033 129.129 26.0506C129.187 23.7057 128.386 16.9516 128.06 17.0433C128.013 17.0566 127.853 17.5754 127.706 18.196C127.559 18.8166 127.058 20.4913 126.594 21.9176C125.301 25.8864 125.214 26.9724 125.786 31.9878C126.079 34.5523 126.079 34.6149 125.795 36.3045C125.531 37.8718 124.61 40.9693 124.451 40.8244C124.414 40.7909 124.416 40.1479 124.454 39.3954C124.659 35.429 124.096 32.679 122.272 28.7327C121.187 26.3873 120.037 24.0957 119.855 23.9179C119.782 23.8462 120.012 25.1045 120.369 26.731C120.724 28.3493 121.204 30.8324 121.434 32.249C121.952 35.4235 122.262 36.4993 123.231 38.4689C123.648 39.3173 124.022 40.1648 124.062 40.3524C124.178 40.8915 123.968 42.4593 123.623 43.6345C122.002 49.1506 121.243 56.2142 121.655 61.9433C121.781 63.7022 121.774 63.8138 121.574 63.2514C121.454 62.9132 121.174 61.8202 120.952 60.8223L120.549 59.0082L120.857 57.8318C121.324 56.0505 121.625 53.0374 121.552 50.8929C121.489 49.0416 121.473 48.9466 120.476 44.417C119.749 41.1181 119.138 38.6787 118.312 35.7786C117.679 33.5557 117.133 31.712 117.1 31.6812C116.932 31.5282 116.871 31.9436 116.956 32.6631C117.049 33.4545 117.04 34.1624 116.879 38.4157C116.779 41.0683 116.807 45.3722 116.937 47.5316C116.992 48.447 117.212 50.0789 117.452 51.3647C117.941 53.9834 118.465 55.5292 119.469 57.316C120.071 58.3874 120.132 58.5701 120.852 61.45C121.266 63.1073 121.692 64.7179 121.798 65.0291C121.904 65.3404 122.138 66.6472 122.317 67.9331C122.496 69.219 122.925 71.8354 123.271 73.7474C123.617 75.6595 123.991 77.7824 124.102 78.4649L124.305 79.706L123.704 78.2715C123.039 76.6862 122.364 75.3372 121.354 73.5805C120.71 72.4591 120.658 72.3071 119.853 69.2449C117.966 62.0564 117.36 60.7295 112.051 52.1537C108.948 47.1411 108.199 46.1179 108.68 47.5496C108.972 48.4176 109.885 51.7342 110.813 55.3007C111.256 57.0022 111.8 58.9742 112.022 59.6829C113.332 63.8672 115.047 66.7197 117.95 69.5464C119.086 70.6521 119.387 71.0503 120.685 73.1654C122.255 75.7222 123.073 77.3615 124.008 79.8165C124.513 81.1466 124.778 82.1529 125.83 86.7396C126.835 91.1184 127.09 92.1 127.22 92.0717C127.35 92.0433 127.164 91.0232 126.185 86.404ZM125.018 74.1214C125.086 72.072 125.468 69.7964 125.964 68.4886C126.698 66.5541 128.246 63.7318 129.998 61.1384C130.871 59.8444 131.182 59.5269 131.254 59.8559C131.315 60.1352 130.511 64.904 130.185 66.1944C129.597 68.5285 128.617 70.7134 127.309 72.6114C126.977 73.0933 126.474 73.8777 126.191 74.3545C125.908 74.8314 125.666 75.1739 125.654 75.1156C125.553 74.653 127.316 69.1951 127.728 68.695C127.811 68.5941 127.903 68.3549 127.932 68.1634C128.042 67.4294 127.624 67.9051 127.036 69.1835C126.408 70.5478 125.714 72.7169 125.342 74.4757C125.219 75.0571 125.087 75.5034 125.047 75.4674C125.008 75.4313 124.994 74.8258 125.018 74.1214ZM119.192 70.0343C117.89 68.3573 116.21 64.8164 113.922 58.9242C113.248 57.1896 113.183 57.0593 113.068 57.2131C112.874 57.4733 115.761 64.5077 117.226 67.3471C117.696 68.2572 118.067 69.0337 118.05 69.0728C117.997 69.1973 116.714 67.8213 115.836 66.6978C114.891 65.4889 114.102 64.1851 113.524 62.8789C112.68 60.9687 112.215 59.4059 109.705 50.0363C109.442 49.055 109.363 48.6188 109.466 48.7118C109.55 48.788 110.341 49.9578 111.224 51.3112C116.18 58.9139 117.697 62.136 119.444 68.7749C119.987 70.8385 119.952 71.0128 119.192 70.0343ZM123.046 58.8321C123.108 58.4528 123.903 56.9584 124.891 55.36C125.363 54.596 125.766 53.9398 125.786 53.9019C125.806 53.8641 125.781 53.7964 125.732 53.7515C125.601 53.6319 124.173 55.6737 123.484 56.9653C122.67 58.4949 122.524 58.3423 122.813 56.2639C123.363 52.3121 125.398 48.9165 129.059 45.8451C130.112 44.9615 132.8 43.0188 133.043 42.9658C133.368 42.8949 133.183 43.2655 131.981 45.0903C130.381 47.5191 128.473 50.6318 127.174 52.9299C125.632 55.6584 124.878 56.8429 123.939 58.0113C123.468 58.5973 123.064 59.0805 123.042 59.0853C123.02 59.0901 123.022 58.9762 123.046 58.8321ZM120.122 56.2379C120.025 55.5729 119.895 54.3145 119.834 53.4412C119.613 50.2931 118.942 45.8702 118.692 45.9246C118.638 45.9365 118.745 46.8077 118.93 47.8606C119.231 49.5714 120.011 56.0831 120.009 56.8743C120.008 57.4295 119.721 57.1456 119.206 56.0812C118.164 53.9252 117.454 50.7348 117.26 47.3413C117.161 45.6133 117.07 40.2954 117.114 38.8698C117.19 36.4705 117.361 34.1739 117.46 34.2283C117.682 34.35 119.199 40.2045 120.183 44.739C121.18 49.3342 121.199 49.4533 121.235 51.1343C121.289 53.7329 120.826 57.332 120.425 57.4193C120.339 57.4381 120.243 57.0643 120.122 56.2379ZM125.887 40.3038C125.877 40.2547 126.299 39.7597 126.826 39.2035C127.877 38.0953 127.895 37.7872 126.854 38.7133C126.494 39.0342 126.154 39.3065 126.1 39.3184C125.909 39.3601 126.387 38.3442 127.02 37.364C128.121 35.6585 129.6 34.3866 131.552 33.4672C133.106 32.7349 137.934 31.8857 138.031 32.3278C138.077 32.5426 135.05 35.2331 132.856 36.9253C129.999 39.13 128.996 39.7022 127.336 40.0735C126.55 40.2493 125.898 40.3529 125.887 40.3038ZM123.212 37.6255C122.763 36.7882 122.664 36.4618 122.161 34.1554C121.855 32.7551 121.38 30.3473 121.104 28.8047L120.602 26L121.441 27.6987C123.325 31.5131 124.006 33.6037 124.187 36.1242C124.244 36.9052 124.261 37.7095 124.226 37.9113C124.165 38.2627 124.157 38.2596 124.027 37.835C123.812 37.1377 123.656 37.3634 123.823 38.129C124.005 38.9624 123.87 38.8512 123.212 37.6255ZM125.912 30.615C125.505 27.0016 125.705 25.0904 126.83 21.8659C127.116 21.0464 127.496 19.9309 127.674 19.3874C127.906 18.6803 128.037 18.456 128.133 18.5994C128.322 18.8785 128.739 22.7546 128.794 24.7354C128.859 27.0659 128.692 27.9226 127.76 30.0501C127.313 31.0695 126.921 31.8791 126.888 31.8492C126.855 31.8192 126.882 31.382 126.949 30.8773C127.169 29.2028 126.902 29.5719 126.614 31.3408C126.449 32.3479 126.288 32.9705 126.23 32.8198C126.176 32.6766 126.033 31.6844 125.912 30.615ZM132.177 26.5029C132.819 25.4976 135.376 22.0543 137.204 19.7345C138.347 18.2833 139.259 17.0744 139.229 17.0481C139.053 16.8874 135.828 20.8593 133.323 24.3215C132.508 25.4493 131.807 26.3032 131.766 26.2188C131.629 25.932 132.11 24.3324 132.813 22.7404C134.837 18.1546 136.528 15.754 138.497 14.6663C139.336 14.2034 146.616 12.5298 146.672 12.7871C146.69 12.868 146.208 14.0039 145.602 15.3115C143.494 19.8588 142.526 21.5399 141.27 22.8353C140.045 24.0982 139.517 24.356 136.471 25.1811C134.385 25.7462 133.5 26.0568 132.892 26.4357C132.448 26.7128 132.056 26.919 132.021 26.8937C131.986 26.8687 132.056 26.6928 132.177 26.5029Z" fill="black"/>
</svg>
