<svg width="1150" height="400" viewBox="0 0 1150 400" fill="none" xmlns="http://www.w3.org/2000/svg">
<circle cx="551" cy="200" r="196.5" stroke="black" stroke-width="7"/>
<rect y="115" width="1147" height="168" fill="white"/>
<path d="M4.224 244.128C4.05333 242.848 4.05333 241.483 4.224 240.032C8.23467 239.605 11.0933 239.221 12.8 238.88C14.5067 238.453 15.5733 237.6 16 236.32C16.4267 234.955 16.64 232.779 16.64 229.792V170.272C16.64 166.688 16.4267 164.128 16 162.592C15.5733 161.056 14.464 160.075 12.672 159.648C10.9653 159.136 8.14933 158.709 4.224 158.368C4.05333 157.088 4.05333 155.723 4.224 154.272C6.44267 154.272 8.36267 154.315 9.984 154.4C11.6907 154.4 13.3973 154.4 15.104 154.4C16.8107 154.4 18.8587 154.443 21.248 154.528C23.6373 154.528 26.6667 154.528 30.336 154.528C37.0773 154.528 43.392 154.528 49.28 154.528C55.168 154.443 60.0747 154.4 64 154.4C67.9253 154.315 70.2293 154.272 70.912 154.272C71.2533 157.429 71.6373 160.672 72.064 164C72.576 167.328 73.1307 170.869 73.728 174.624C72.2773 174.795 70.8693 174.795 69.504 174.624C68.48 172.064 67.2853 169.803 65.92 167.84C64.5547 165.877 63.1467 164.384 61.696 163.36C60.0747 162.165 58.112 161.269 55.808 160.672C53.5893 160.075 50.816 159.776 47.488 159.776H30.72V194.72H37.76C41.856 194.72 44.9707 194.464 47.104 193.952C49.2373 193.355 50.816 192.117 51.84 190.24C52.864 188.277 53.6747 185.205 54.272 181.024C55.808 180.768 57.2587 180.768 58.624 181.024C58.5387 184.779 58.4533 187.68 58.368 189.728C58.368 191.691 58.368 193.141 58.368 194.08C58.368 195.019 58.368 195.787 58.368 196.384C58.368 196.896 58.368 197.323 58.368 197.664L58.624 214.56C57.344 214.816 55.8933 214.816 54.272 214.56C53.76 210.037 52.992 206.795 51.968 204.832C50.944 202.869 49.408 201.632 47.36 201.12C45.3973 200.608 42.5813 200.352 38.912 200.352H30.72V228.128C30.72 231.029 30.72 233.376 30.72 235.168C30.8053 236.875 30.8907 237.984 30.976 238.496H48.512C52.7787 238.496 56.192 238.155 58.752 237.472C61.3973 236.704 63.5733 235.595 65.28 234.144C66.4747 233.205 67.8827 231.584 69.504 229.28C71.1253 226.891 72.6613 224.16 74.112 221.088C75.4773 220.917 76.8 220.917 78.08 221.088C77.2267 225.867 76.5013 230.176 75.904 234.016C75.3067 237.856 74.7947 241.184 74.368 244C70.528 244 66.3467 244 61.824 244C57.3013 244 52.7787 244 48.256 244C43.7333 243.915 39.5947 243.872 35.84 243.872C32.1707 243.872 29.2267 243.872 27.008 243.872C22.9973 243.872 19.712 243.915 17.152 244C14.6773 244 12.4587 244 10.496 244C8.61867 244.085 6.528 244.128 4.224 244.128ZM86.099 244.128C85.9283 242.848 85.9283 241.483 86.099 240.032C90.1097 239.605 92.9683 239.221 94.675 238.88C96.3817 238.453 97.4483 237.6 97.875 236.32C98.3017 234.955 98.515 232.779 98.515 229.792V170.272C98.515 166.688 98.3017 164.128 97.875 162.592C97.4483 161.056 96.339 160.075 94.547 159.648C92.8403 159.136 90.0243 158.709 86.099 158.368C85.9283 157.088 85.9283 155.723 86.099 154.272C87.891 154.272 89.9817 154.315 92.371 154.4C94.8457 154.4 97.2777 154.443 99.667 154.528C102.056 154.528 104.019 154.528 105.555 154.528C107.176 154.528 109.182 154.528 111.571 154.528C114.046 154.443 116.52 154.4 118.995 154.4C121.555 154.315 123.646 154.272 125.267 154.272C125.523 155.552 125.523 156.917 125.267 158.368C121.256 158.709 118.355 159.093 116.563 159.52C114.771 159.947 113.662 160.8 113.235 162.08C112.808 163.36 112.595 165.536 112.595 168.608V228.128C112.595 231.029 112.595 233.376 112.595 235.168C112.68 236.875 112.766 238.027 112.851 238.624H131.027C138.11 238.624 143.358 237.045 146.771 233.888C149.587 231.157 152.531 226.379 155.603 219.552C156.968 219.296 158.291 219.296 159.571 219.552C158.547 224.757 157.694 229.451 157.011 233.632C156.414 237.728 155.902 241.184 155.475 244C147.198 244 138.92 244 130.643 244C122.451 243.915 114.216 243.872 105.939 243.872C104.318 243.872 102.27 243.915 99.795 244C97.3203 244 94.8457 244 92.371 244C89.8963 244.085 87.8057 244.128 86.099 244.128ZM164.724 244.128C164.553 242.848 164.553 241.483 164.724 240.032C168.735 239.605 171.593 239.221 173.3 238.88C175.007 238.453 176.073 237.6 176.5 236.32C176.927 234.955 177.14 232.779 177.14 229.792V170.272C177.14 166.688 176.927 164.128 176.5 162.592C176.073 161.056 174.964 160.075 173.172 159.648C171.465 159.136 168.649 158.709 164.724 158.368C164.553 157.088 164.553 155.723 164.724 154.272C166.943 154.272 168.863 154.315 170.484 154.4C172.191 154.4 173.897 154.4 175.604 154.4C177.311 154.4 179.359 154.443 181.748 154.528C184.137 154.528 187.167 154.528 190.836 154.528C197.577 154.528 203.892 154.528 209.78 154.528C215.668 154.443 220.575 154.4 224.5 154.4C228.425 154.315 230.729 154.272 231.412 154.272C231.753 157.429 232.137 160.672 232.564 164C233.076 167.328 233.631 170.869 234.228 174.624C232.777 174.795 231.369 174.795 230.004 174.624C228.98 172.064 227.785 169.803 226.42 167.84C225.055 165.877 223.647 164.384 222.196 163.36C220.575 162.165 218.612 161.269 216.308 160.672C214.089 160.075 211.316 159.776 207.988 159.776H191.22V194.72H198.26C202.356 194.72 205.471 194.464 207.604 193.952C209.737 193.355 211.316 192.117 212.34 190.24C213.364 188.277 214.175 185.205 214.772 181.024C216.308 180.768 217.759 180.768 219.124 181.024C219.039 184.779 218.953 187.68 218.868 189.728C218.868 191.691 218.868 193.141 218.868 194.08C218.868 195.019 218.868 195.787 218.868 196.384C218.868 196.896 218.868 197.323 218.868 197.664L219.124 214.56C217.844 214.816 216.393 214.816 214.772 214.56C214.26 210.037 213.492 206.795 212.468 204.832C211.444 202.869 209.908 201.632 207.86 201.12C205.897 200.608 203.081 200.352 199.412 200.352H191.22V228.128C191.22 231.029 191.22 233.376 191.22 235.168C191.305 236.875 191.391 237.984 191.476 238.496H209.012C213.279 238.496 216.692 238.155 219.252 237.472C221.897 236.704 224.073 235.595 225.78 234.144C226.975 233.205 228.383 231.584 230.004 229.28C231.625 226.891 233.161 224.16 234.612 221.088C235.977 220.917 237.3 220.917 238.58 221.088C237.727 225.867 237.001 230.176 236.404 234.016C235.807 237.856 235.295 241.184 234.868 244C231.028 244 226.847 244 222.324 244C217.801 244 213.279 244 208.756 244C204.233 243.915 200.095 243.872 196.34 243.872C192.671 243.872 189.727 243.872 187.508 243.872C183.497 243.872 180.212 243.915 177.652 244C175.177 244 172.959 244 170.996 244C169.119 244.085 167.028 244.128 164.724 244.128ZM321.863 244.896L264.903 170.144V224.928C264.903 228.171 264.988 230.688 265.159 232.48C265.33 234.187 265.842 235.509 266.695 236.448C267.548 237.301 268.871 238.027 270.663 238.624C272.455 239.221 275.015 239.691 278.343 240.032C278.514 241.397 278.514 242.763 278.343 244.128C275.783 244.128 272.924 244.085 269.767 244C266.695 243.915 264.092 243.872 261.959 243.872C259.826 243.872 257.18 243.915 254.023 244C250.951 244.085 248.178 244.128 245.703 244.128C245.447 242.848 245.447 241.483 245.703 240.032C248.775 239.605 251.164 239.221 252.871 238.88C254.578 238.453 255.815 237.856 256.583 237.088C257.351 236.235 257.82 234.997 257.991 233.376C258.247 231.755 258.375 229.493 258.375 226.592V174.112C258.375 170.699 258.247 168.011 257.991 166.048C257.82 164.085 257.266 162.635 256.327 161.696C255.474 160.672 254.108 159.947 252.231 159.52C250.439 159.008 247.922 158.581 244.679 158.24C244.594 156.96 244.594 155.637 244.679 154.272C247.324 154.272 250.14 154.315 253.127 154.4C256.114 154.485 259.1 154.528 262.087 154.528C262.514 154.528 263.666 154.528 265.543 154.528C267.506 154.528 269.212 154.485 270.663 154.4L322.631 222.752V173.6C322.631 170.357 322.546 167.84 322.375 166.048C322.29 164.256 321.778 162.933 320.839 162.08C319.047 160.203 314.738 159.008 307.911 158.496C307.655 157.045 307.655 155.68 307.911 154.4C309.532 154.4 311.452 154.443 313.671 154.528C315.975 154.528 318.194 154.571 320.327 154.656C322.46 154.656 324.21 154.656 325.575 154.656C327.708 154.656 330.354 154.613 333.511 154.528C336.668 154.443 339.484 154.4 341.959 154.4C342.13 155.68 342.13 157.003 341.959 158.368C337.863 158.88 334.919 159.477 333.127 160.16C331.335 160.757 330.226 161.909 329.799 163.616C329.372 165.323 329.159 168.096 329.159 171.936V244.256C328.306 244.427 327.154 244.555 325.703 244.64C324.252 244.811 322.972 244.896 321.863 244.896ZM374.595 168.608V228.128C374.595 230.773 374.68 232.864 374.851 234.4C375.022 235.936 375.491 237.045 376.259 237.728C377.027 238.411 378.264 238.923 379.971 239.264C381.678 239.52 384.11 239.776 387.267 240.032C387.523 241.397 387.523 242.763 387.267 244.128C385.56 244.128 383.47 244.085 380.995 244C378.52 244 376.046 244 373.571 244C371.182 243.915 369.176 243.872 367.555 243.872C365.934 243.872 363.886 243.915 361.411 244C359.022 244 356.59 244 354.115 244C351.726 244.085 349.592 244.128 347.715 244.128C347.459 242.848 347.459 241.483 347.715 240.032C351.811 239.605 354.755 239.221 356.547 238.88C358.339 238.453 359.448 237.6 359.875 236.32C360.302 235.04 360.515 232.864 360.515 229.792V170.272C360.515 166.688 360.302 164.128 359.875 162.592C359.448 161.056 358.339 160.075 356.547 159.648C354.755 159.136 351.811 158.709 347.715 158.368C347.544 157.088 347.544 155.723 347.715 154.272C349.507 154.272 351.64 154.315 354.115 154.4C356.675 154.4 359.192 154.443 361.667 154.528C364.142 154.528 366.19 154.528 367.811 154.528C369.432 154.528 371.438 154.528 373.827 154.528C376.216 154.443 378.648 154.4 381.123 154.4C383.598 154.315 385.646 154.272 387.267 154.272C387.523 155.552 387.523 156.917 387.267 158.368C383.256 158.709 380.355 159.093 378.563 159.52C376.771 159.947 375.662 160.8 375.235 162.08C374.808 163.36 374.595 165.536 374.595 168.608Z" fill="black"/>
<path d="M720.224 244.128C720.053 242.848 720.053 241.483 720.224 240.032C724.235 239.605 727.093 239.221 728.8 238.88C730.507 238.453 731.573 237.6 732 236.32C732.427 234.955 732.64 232.779 732.64 229.792V170.272C732.64 166.688 732.427 164.128 732 162.592C731.573 161.056 730.464 160.075 728.672 159.648C726.965 159.136 724.149 158.709 720.224 158.368C720.053 157.088 720.053 155.723 720.224 154.272C722.016 154.272 724.107 154.315 726.496 154.4C728.971 154.4 731.403 154.443 733.792 154.528C736.181 154.528 738.144 154.528 739.68 154.528C741.301 154.528 743.307 154.528 745.696 154.528C748.171 154.443 750.645 154.4 753.12 154.4C755.68 154.315 757.771 154.272 759.392 154.272C759.648 155.552 759.648 156.917 759.392 158.368C755.381 158.709 752.48 159.093 750.688 159.52C748.896 159.947 747.787 160.8 747.36 162.08C746.933 163.36 746.72 165.536 746.72 168.608V228.128C746.72 231.029 746.72 233.376 746.72 235.168C746.805 236.875 746.891 238.027 746.976 238.624H765.152C772.235 238.624 777.483 237.045 780.896 233.888C783.712 231.157 786.656 226.379 789.728 219.552C791.093 219.296 792.416 219.296 793.696 219.552C792.672 224.757 791.819 229.451 791.136 233.632C790.539 237.728 790.027 241.184 789.6 244C781.323 244 773.045 244 764.768 244C756.576 243.915 748.341 243.872 740.064 243.872C738.443 243.872 736.395 243.915 733.92 244C731.445 244 728.971 244 726.496 244C724.021 244.085 721.931 244.128 720.224 244.128ZM798.849 244.128C798.678 242.848 798.678 241.483 798.849 240.032C802.86 239.605 805.718 239.221 807.425 238.88C809.132 238.453 810.198 237.6 810.625 236.32C811.052 234.955 811.265 232.779 811.265 229.792V170.272C811.265 166.688 811.052 164.128 810.625 162.592C810.198 161.056 809.089 160.075 807.297 159.648C805.59 159.136 802.774 158.709 798.849 158.368C798.678 157.088 798.678 155.723 798.849 154.272C801.068 154.272 802.988 154.315 804.609 154.4C806.316 154.4 808.022 154.4 809.729 154.4C811.436 154.4 813.484 154.443 815.873 154.528C818.262 154.528 821.292 154.528 824.961 154.528C831.702 154.528 838.017 154.528 843.905 154.528C849.793 154.443 854.7 154.4 858.625 154.4C862.55 154.315 864.854 154.272 865.537 154.272C865.878 157.429 866.262 160.672 866.689 164C867.201 167.328 867.756 170.869 868.353 174.624C866.902 174.795 865.494 174.795 864.129 174.624C863.105 172.064 861.91 169.803 860.545 167.84C859.18 165.877 857.772 164.384 856.321 163.36C854.7 162.165 852.737 161.269 850.433 160.672C848.214 160.075 845.441 159.776 842.113 159.776H825.345V194.72H832.385C836.481 194.72 839.596 194.464 841.729 193.952C843.862 193.355 845.441 192.117 846.465 190.24C847.489 188.277 848.3 185.205 848.897 181.024C850.433 180.768 851.884 180.768 853.249 181.024C853.164 184.779 853.078 187.68 852.993 189.728C852.993 191.691 852.993 193.141 852.993 194.08C852.993 195.019 852.993 195.787 852.993 196.384C852.993 196.896 852.993 197.323 852.993 197.664L853.249 214.56C851.969 214.816 850.518 214.816 848.897 214.56C848.385 210.037 847.617 206.795 846.593 204.832C845.569 202.869 844.033 201.632 841.985 201.12C840.022 200.608 837.206 200.352 833.537 200.352H825.345V228.128C825.345 231.029 825.345 233.376 825.345 235.168C825.43 236.875 825.516 237.984 825.601 238.496H843.137C847.404 238.496 850.817 238.155 853.377 237.472C856.022 236.704 858.198 235.595 859.905 234.144C861.1 233.205 862.508 231.584 864.129 229.28C865.75 226.891 867.286 224.16 868.737 221.088C870.102 220.917 871.425 220.917 872.705 221.088C871.852 225.867 871.126 230.176 870.529 234.016C869.932 237.856 869.42 241.184 868.993 244C865.153 244 860.972 244 856.449 244C851.926 244 847.404 244 842.881 244C838.358 243.915 834.22 243.872 830.465 243.872C826.796 243.872 823.852 243.872 821.633 243.872C817.622 243.872 814.337 243.915 811.777 244C809.302 244 807.084 244 805.121 244C803.244 244.085 801.153 244.128 798.849 244.128ZM880.34 244.128C880.169 242.848 880.169 241.483 880.34 240.032C884.436 239.605 887.38 239.221 889.172 238.88C890.964 238.453 892.073 237.6 892.5 236.32C892.927 235.04 893.14 232.864 893.14 229.792V170.272C893.14 166.688 892.927 164.128 892.5 162.592C892.073 161.056 890.964 160.075 889.172 159.648C887.38 159.136 884.436 158.709 880.34 158.368C880.169 157.088 880.169 155.723 880.34 154.272C882.047 154.272 884.137 154.315 886.612 154.4C889.172 154.4 891.689 154.443 894.164 154.528C896.639 154.528 898.644 154.528 900.18 154.528C901.801 154.528 903.764 154.528 906.068 154.528C908.457 154.443 910.847 154.4 913.236 154.4C915.711 154.315 917.801 154.272 919.508 154.272C919.764 155.552 919.764 156.917 919.508 158.368C915.583 158.709 912.767 159.093 911.06 159.52C909.353 159.947 908.287 160.8 907.86 162.08C907.433 163.36 907.22 165.536 907.22 168.608V200.224L936.66 168.992C939.903 165.493 941.524 163.104 941.524 161.824C941.524 160.715 940.756 159.947 939.22 159.52C937.684 159.008 935.167 158.624 931.668 158.368C931.497 156.917 931.497 155.552 931.668 154.272C933.119 154.272 934.953 154.315 937.172 154.4C939.391 154.4 941.609 154.443 943.828 154.528C946.047 154.528 947.839 154.528 949.204 154.528C951.935 154.528 954.495 154.485 956.884 154.4C959.359 154.315 962.047 154.272 964.948 154.272C965.119 155.637 965.119 157.003 964.948 158.368C962.303 158.624 960.084 158.965 958.292 159.392C956.585 159.819 954.921 160.544 953.3 161.568C951.764 162.592 950.015 164.043 948.052 165.92C946.089 167.797 943.615 170.272 940.628 173.344L921.812 192.8L948.18 227.488C950.228 230.133 951.935 232.267 953.3 233.888C954.665 235.424 955.988 236.619 957.268 237.472C958.633 238.24 960.169 238.795 961.876 239.136C963.668 239.477 965.929 239.776 968.66 240.032C968.916 241.397 968.916 242.763 968.66 244.128C967.039 244.128 965.119 244.085 962.9 244C960.681 244 958.505 244 956.372 244C954.239 243.915 952.404 243.872 950.868 243.872C949.929 243.872 948.692 243.915 947.156 244C945.705 244 944.383 244 943.188 244L912.468 202.656L907.22 208.416V228.128C907.22 231.712 907.433 234.315 907.86 235.936C908.287 237.472 909.353 238.453 911.06 238.88C912.852 239.307 915.668 239.691 919.508 240.032C919.764 241.397 919.764 242.763 919.508 244.128C917.801 244.128 915.711 244.085 913.236 244C910.847 244 908.415 244 905.94 244C903.551 243.915 901.545 243.872 899.924 243.872C898.303 243.872 896.297 243.915 893.908 244C891.519 244 889.087 244 886.612 244C884.223 244.085 882.132 244.128 880.34 244.128ZM971.84 244.128C971.669 242.848 971.669 241.483 971.84 240.032C975.936 239.605 978.88 239.221 980.672 238.88C982.464 238.453 983.573 237.6 984 236.32C984.427 235.04 984.64 232.864 984.64 229.792V170.272C984.64 166.688 984.427 164.128 984 162.592C983.573 161.056 982.464 160.075 980.672 159.648C978.88 159.136 975.936 158.709 971.84 158.368C971.669 157.088 971.669 155.723 971.84 154.272C973.547 154.272 975.637 154.315 978.112 154.4C980.672 154.4 983.189 154.443 985.664 154.528C988.139 154.528 990.144 154.528 991.68 154.528C993.301 154.528 995.264 154.528 997.568 154.528C999.957 154.443 1002.35 154.4 1004.74 154.4C1007.21 154.315 1009.3 154.272 1011.01 154.272C1011.26 155.552 1011.26 156.917 1011.01 158.368C1007.08 158.709 1004.27 159.093 1002.56 159.52C1000.85 159.947 999.787 160.8 999.36 162.08C998.933 163.36 998.72 165.536 998.72 168.608V200.224L1028.16 168.992C1031.4 165.493 1033.02 163.104 1033.02 161.824C1033.02 160.715 1032.26 159.947 1030.72 159.52C1029.18 159.008 1026.67 158.624 1023.17 158.368C1023 156.917 1023 155.552 1023.17 154.272C1024.62 154.272 1026.45 154.315 1028.67 154.4C1030.89 154.4 1033.11 154.443 1035.33 154.528C1037.55 154.528 1039.34 154.528 1040.7 154.528C1043.43 154.528 1045.99 154.485 1048.38 154.4C1050.86 154.315 1053.55 154.272 1056.45 154.272C1056.62 155.637 1056.62 157.003 1056.45 158.368C1053.8 158.624 1051.58 158.965 1049.79 159.392C1048.09 159.819 1046.42 160.544 1044.8 161.568C1043.26 162.592 1041.51 164.043 1039.55 165.92C1037.59 167.797 1035.11 170.272 1032.13 173.344L1013.31 192.8L1039.68 227.488C1041.73 230.133 1043.43 232.267 1044.8 233.888C1046.17 235.424 1047.49 236.619 1048.77 237.472C1050.13 238.24 1051.67 238.795 1053.38 239.136C1055.17 239.477 1057.43 239.776 1060.16 240.032C1060.42 241.397 1060.42 242.763 1060.16 244.128C1058.54 244.128 1056.62 244.085 1054.4 244C1052.18 244 1050.01 244 1047.87 244C1045.74 243.915 1043.9 243.872 1042.37 243.872C1041.43 243.872 1040.19 243.915 1038.66 244C1037.21 244 1035.88 244 1034.69 244L1003.97 202.656L998.72 208.416V228.128C998.72 231.712 998.933 234.315 999.36 235.936C999.787 237.472 1000.85 238.453 1002.56 238.88C1004.35 239.307 1007.17 239.691 1011.01 240.032C1011.26 241.397 1011.26 242.763 1011.01 244.128C1009.3 244.128 1007.21 244.085 1004.74 244C1002.35 244 999.915 244 997.44 244C995.051 243.915 993.045 243.872 991.424 243.872C989.803 243.872 987.797 243.915 985.408 244C983.019 244 980.587 244 978.112 244C975.723 244.085 973.632 244.128 971.84 244.128ZM1056.04 244.128C1055.87 242.763 1055.87 241.397 1056.04 240.032C1058.43 239.776 1060.35 239.477 1061.8 239.136C1063.25 238.795 1064.49 238.197 1065.52 237.344C1066.54 236.405 1067.52 235.04 1068.46 233.248C1069.4 231.371 1070.51 228.768 1071.79 225.44L1099.44 154.528C1100.37 154.187 1101.48 153.931 1102.76 153.76C1104.13 153.589 1105.28 153.504 1106.22 153.504L1133.74 226.592C1134.93 229.664 1135.92 232.096 1136.68 233.888C1137.45 235.595 1138.31 236.832 1139.24 237.6C1140.18 238.368 1141.38 238.923 1142.83 239.264C1144.28 239.52 1146.28 239.776 1148.84 240.032C1149.01 241.397 1149.01 242.763 1148.84 244.128C1145.86 244.128 1142.79 244.085 1139.63 244C1136.47 243.915 1133.31 243.872 1130.16 243.872C1126.91 243.872 1123.63 243.915 1120.3 244C1117.06 244.085 1113.81 244.128 1110.57 244.128C1110.32 242.848 1110.32 241.483 1110.57 240.032C1114.75 239.605 1117.65 239.221 1119.28 238.88C1120.9 238.453 1121.71 237.429 1121.71 235.808C1121.71 235.125 1121.58 234.357 1121.32 233.504C1121.07 232.651 1120.73 231.584 1120.3 230.304L1113 210.592H1084.2L1077.8 228.256C1077.21 229.877 1076.74 231.243 1076.4 232.352C1076.14 233.376 1076.01 234.315 1076.01 235.168C1076.01 237.045 1076.87 238.24 1078.57 238.752C1080.36 239.179 1083.27 239.605 1087.28 240.032C1087.45 241.483 1087.45 242.848 1087.28 244.128C1084.37 244.128 1081.52 244.085 1078.7 244C1075.88 243.915 1073.03 243.872 1070.12 243.872C1067.73 243.872 1065.43 243.915 1063.21 244C1060.99 244.085 1058.6 244.128 1056.04 244.128ZM1086.12 205.216H1111.08L1098.54 171.168L1086.12 205.216Z" fill="black"/>
<path fill-rule="evenodd" clip-rule="evenodd" d="M540.091 336.96L535.625 315.81L536.15 310.398C537.002 301.633 539.465 296.636 549.647 283.015C553.284 278.15 558.475 267.515 560.404 260.977C563.055 251.994 566.817 230.519 565.697 230.763C565.162 230.88 557.761 239.758 554.087 244.692C548.713 251.908 542.469 262.087 539.873 267.86C536.46 275.451 534.282 289.064 534.859 299.182C535.172 304.672 534.98 309.814 534.457 309.928C533.794 310.073 528.915 282.558 527.011 267.949C525.103 253.303 524.93 248.991 526.042 243.802C526.958 239.527 527.414 238.542 529.426 236.496C537.061 228.729 538.991 226.154 552.03 206.34C559.366 195.191 567.909 183.159 575.086 173.865C577.286 171.015 578.621 168.797 578.295 168.533C577.61 167.977 569.301 172.68 561.335 178.13C538.73 193.598 527.785 210.115 526.759 230.311C526.527 234.885 525.403 241.205 524.895 240.793C524.38 240.375 524.741 226.384 525.446 219.476C527.559 198.765 534.147 173.897 539.046 168.133C540.024 166.983 541.79 166.26 547.581 164.638C555.927 162.3 559.049 160.848 567.276 155.478C576.473 149.474 599.546 131.83 600.446 130.113C601.124 128.819 599.71 128.705 592.687 129.485C572.905 131.685 561.063 136.277 551.834 145.327C548.125 148.964 543.312 156.119 541.988 159.959C541.492 161.398 540.94 162.457 540.76 162.311C539.663 161.422 550.977 139.697 558.86 127.553C564.723 118.521 565.894 117.144 569.909 114.557C576.586 110.256 580.01 108.87 590.741 106.125C609.896 101.226 613.646 97.6214 629.086 69.275C634.273 59.7508 636.407 55.299 635.959 54.9356C635.547 54.6016 629.387 55.6154 619.127 57.7066C606.101 60.3617 602.204 61.3592 599.149 62.8215C591.508 66.4794 585.915 72.4591 578.692 84.6942C572.3 95.5212 567.866 105.28 567.12 110.157C566.569 113.763 566.043 114.941 563.159 119.023C558.529 125.576 552.772 134.721 548.689 142.008C546.788 145.401 545.114 148.08 544.969 147.963C544.823 147.844 545.351 145.297 546.141 142.299C547.084 138.725 549.159 133.729 552.173 127.774C556.927 118.382 558.01 115.057 558.345 108.813C558.821 99.9548 556.114 74.5333 554.735 74.9116C554.534 74.9664 553.814 76.9407 553.135 79.2981C552.456 81.6554 550.19 88.027 548.099 93.4572C542.281 108.567 541.809 112.676 543.725 131.555C544.704 141.209 544.699 141.445 543.339 147.852C542.078 153.795 537.906 165.579 537.251 165.047C537.1 164.924 537.169 162.497 537.405 159.652C538.651 144.657 536.555 134.33 529.275 119.609C524.948 110.86 520.34 102.32 519.593 101.666C519.293 101.403 520.135 106.131 521.476 112.237C522.811 118.312 524.583 127.64 525.415 132.966C527.278 144.901 528.478 148.932 532.354 156.273C534.023 159.436 535.512 162.599 535.663 163.303C536.097 165.327 535.062 171.267 533.497 175.737C526.15 196.721 522.271 223.463 523.442 245.053C523.801 251.681 523.761 252.103 522.976 249.999C522.503 248.734 521.434 244.635 520.601 240.889L519.085 234.079L520.494 229.608C522.627 222.837 524.189 211.432 524.09 203.343C524.006 196.36 523.949 196.003 520.2 178.999C517.47 166.615 515.141 157.465 511.953 146.596C509.51 138.266 507.397 131.358 507.258 131.245C506.566 130.684 506.27 132.258 506.558 134.966C506.873 137.945 506.765 140.618 505.676 156.692C504.996 166.717 504.69 182.963 505.028 191.103C505.172 194.553 505.933 200.693 506.817 205.524C508.617 215.363 510.667 221.148 514.711 227.796C517.136 231.782 517.375 232.466 520.117 243.269C521.695 249.486 523.327 255.525 523.743 256.689C524.16 257.854 525.014 262.765 525.641 267.602C526.267 272.439 527.816 282.276 529.081 289.461C530.347 296.646 531.711 304.624 532.113 307.19L532.845 311.856L530.458 306.499C527.821 300.578 525.115 295.551 521.046 289.017C518.448 284.847 518.242 284.278 515.162 272.795C507.932 245.84 505.517 240.889 484.049 209.03C471.501 190.408 468.454 186.618 470.337 191.977C471.478 195.225 474.988 207.658 478.54 221.032C480.235 227.413 482.328 234.805 483.191 237.459C488.288 253.129 495.213 263.73 507.136 274.119C511.801 278.183 513.026 279.657 518.274 287.516C524.618 297.015 527.899 303.124 531.584 312.302C533.579 317.274 534.594 321.048 538.566 338.262C542.358 354.696 543.337 358.377 543.885 358.257C544.435 358.137 543.753 354.304 540.091 336.96ZM536.383 290.702C536.868 282.958 538.697 274.33 540.908 269.343C544.18 261.968 550.963 251.162 558.572 241.2C562.369 236.229 563.706 235 563.976 236.236C564.205 237.284 560.362 255.366 558.868 260.27C556.167 269.14 551.839 277.484 546.158 284.778C544.715 286.629 542.525 289.64 541.29 291.468C540.055 293.296 539.006 294.612 538.958 294.393C538.579 292.657 546.521 271.879 548.301 269.951C548.66 269.562 549.068 268.65 549.207 267.924C549.741 265.142 547.939 266.979 545.344 271.863C542.574 277.075 539.447 285.332 537.713 292.008C537.14 294.215 536.538 295.913 536.376 295.781C536.213 295.649 536.217 293.364 536.383 290.702ZM512.308 275.84C506.999 269.636 500.287 256.431 491.248 234.409C488.587 227.926 488.326 227.44 487.83 228.032C486.989 229.033 498.429 255.309 504.31 265.886C506.196 269.277 507.678 272.172 507.604 272.321C507.368 272.797 502.113 267.727 498.532 263.571C494.679 259.099 491.49 254.254 489.192 249.379C485.83 242.249 484.03 236.394 474.397 201.265C473.389 197.586 473.101 195.946 473.524 196.288C473.871 196.567 477.08 200.906 480.655 205.93C500.737 234.15 506.795 246.167 513.489 271.061C515.569 278.799 515.406 279.46 512.308 275.84ZM529.59 233.171C529.89 231.733 533.373 226.013 537.681 219.882C539.741 216.952 541.496 214.435 541.584 214.29C541.67 214.145 541.575 213.892 541.373 213.728C540.832 213.289 534.633 221.137 531.616 226.08C528.043 231.934 527.444 231.373 528.862 223.498C531.558 208.524 540.441 195.506 556.121 183.553C560.631 180.114 572.114 172.517 573.14 172.294C574.513 171.994 573.698 173.411 568.471 180.418C561.513 189.744 553.191 201.682 547.511 210.485C540.768 220.936 537.483 225.482 533.422 229.985C531.386 232.243 529.643 234.107 529.551 234.127C529.458 234.148 529.476 233.717 529.59 233.171ZM517.562 223.662C517.217 221.161 516.795 216.423 516.623 213.131C516.003 201.268 513.612 184.635 512.559 184.865C512.329 184.915 512.694 188.193 513.37 192.151C514.468 198.58 517.108 223.089 517.024 226.076C516.965 228.172 515.785 227.128 513.728 223.16C509.561 215.122 506.887 203.146 506.402 190.353C506.155 183.839 506.291 163.77 506.618 158.384C507.17 149.318 508.112 140.631 508.524 140.826C509.446 141.264 515.247 163.219 518.937 180.243C522.677 197.494 522.748 197.942 522.732 204.285C522.707 214.091 520.409 227.724 518.719 228.093C518.356 228.172 517.989 226.77 517.562 223.662ZM543.337 162.942C543.297 162.757 545.121 160.847 547.39 158.696C551.912 154.409 552.016 153.245 547.555 156.843C546.009 158.089 544.556 159.15 544.327 159.201C543.519 159.377 545.627 155.495 548.381 151.732C553.173 145.186 559.512 140.24 567.801 136.578C574.403 133.661 594.771 129.984 595.133 131.644C595.309 132.45 582.326 142.903 572.946 149.507C560.727 158.109 556.455 160.367 549.444 161.931C546.125 162.671 543.377 163.126 543.337 162.942ZM532.358 153.091C530.552 149.974 530.169 148.751 528.28 140.092C527.133 134.836 525.37 125.792 524.36 119.995L522.527 109.454L525.886 115.786C533.429 130.003 536.088 137.83 536.603 147.328C536.763 150.271 536.757 153.306 536.591 154.071C536.302 155.404 536.266 155.393 535.76 153.802C534.927 151.191 534.248 152.058 534.875 154.932C535.557 158.061 535.002 157.654 532.358 153.091ZM544.386 126.36C543.027 112.758 544.056 105.522 549.096 93.2388C550.378 90.117 552.082 85.8686 552.884 83.799C553.928 81.1069 554.499 80.2472 554.891 80.7792C555.655 81.8147 557.03 96.4076 557.069 103.881C557.114 112.673 556.33 115.924 552.204 124.047C550.228 127.939 548.5 131.034 548.364 130.925C548.229 130.814 548.387 129.161 548.716 127.249C549.806 120.906 548.648 122.325 547.263 129.032C546.474 132.85 545.735 135.216 545.508 134.653C545.294 134.118 544.788 130.386 544.386 126.36ZM571.11 110.224C573.903 106.366 584.983 93.1161 592.888 84.1799C597.833 78.5894 601.781 73.9362 601.661 73.8396C600.935 73.2501 586.997 88.5605 576.138 101.876C572.6 106.214 569.574 109.506 569.412 109.191C568.861 108.122 571.039 102.036 574.147 95.9567C583.101 78.4457 590.436 69.2178 598.818 64.9189C602.385 63.0896 633.136 56.0604 633.347 57.0266C633.413 57.33 631.279 61.6657 628.605 66.6617C619.305 84.0351 615.074 90.4767 609.668 95.49C604.398 100.377 602.158 101.402 589.28 104.814C580.461 107.151 576.709 108.41 574.119 109.9C572.226 110.99 570.559 111.806 570.414 111.715C570.27 111.623 570.582 110.952 571.11 110.224Z" fill="black"/>
</svg>
